<svg xmlns="http://www.w3.org/2000/svg" width="128" height="128" viewBox="0 0 64 64">
  <rect x="2" y="2" width="60" height="60" rx="14" fill="#FFFFFF" stroke="#E2E8F0" stroke-width="2"/>
  <path d="M11 50c11-2 10-19 21-20 9-1 11 9 20 8" fill="none" stroke="#1D4ED8" stroke-width="5" stroke-linecap="round"/>
  <path d="M40 14c-7 0-12 5-12 12 0 9 12 21 12 21s12-12 12-21c0-7-5-12-12-12z" fill="#1D4ED8"/>
  <path d="M36 26h8M40 22v8" stroke="#FFFFFF" stroke-width="3" stroke-linecap="round"/>
  <rect x="10" y="11" width="8" height="24" rx="4" fill="#1E293B" stroke="#475569"/>
  <circle cx="14" cy="17" r="2.3" fill="#DC2626"/><circle cx="14" cy="23" r="2.3" fill="#D97706"/><circle cx="14" cy="29" r="2.3" fill="#059669"/>
</svg>
